<?xml version="1.0" encoding="UTF-8" standalone="no"?>
<svg
   width="1280"
   height="580.40991"
   overflow="hidden"
   version="1.1"
   id="svg56260"
   sodipodi:docname="neuroethology-obstacles.svg"
   inkscape:version="1.2.2 (732a01da63, 2022-12-09)"
   xmlns:inkscape="http://www.inkscape.org/namespaces/inkscape"
   xmlns:sodipodi="http://sodipodi.sourceforge.net/DTD/sodipodi-0.dtd"
   xmlns="http://www.w3.org/2000/svg"
   xmlns:svg="http://www.w3.org/2000/svg">
  <defs
     id="defs56264" />
  <sodipodi:namedview
     id="namedview56262"
     pagecolor="#ffffff"
     bordercolor="#666666"
     borderopacity="1.0"
     inkscape:showpageshadow="2"
     inkscape:pageopacity="0.0"
     inkscape:pagecheckerboard="0"
     inkscape:deskcolor="#d1d1d1"
     showgrid="false"
     inkscape:zoom="1.1929687"
     inkscape:cx="638.74266"
     inkscape:cy="280.81206"
     inkscape:window-width="2560"
     inkscape:window-height="1334"
     inkscape:window-x="-11"
     inkscape:window-y="-11"
     inkscape:window-maximized="1"
     inkscape:current-layer="svg56260" />
  <rect
     x="0"
     y="0"
     width="1280"
     height="580.40991"
     fill="#ffffff"
     id="rect56182"
     style="stroke-width:0.897844" />
  <path
     d="M 88,101.60497 C 88,95.860971 92.6561,91.204971 98.3997,91.204971 H 1015.6 c 5.74,0 10.4,4.656 10.4,10.399999 v 83.2 c 0,5.744 -4.66,10.4 -10.4,10.4 H 98.3997 c -5.7436,0 -10.3997,-4.656 -10.3997,-10.4 z"
     fill="#ffffff"
     fill-rule="evenodd"
     id="path56190" />
  <g
     id="g56202"
     transform="translate(0,-138.79503)">
    <g
       id="g56200">
      <g
         id="g56198">
        <path
           d="m 169.909,237.583 c -1.167,-0.453 -2.401,-0.707 -3.651,-0.755 -1.251,0.048 -2.485,0.302 -3.652,0.755 -0.777,0.312 -1.598,0.501 -2.434,0.558 v 0 c -0.836,-0.057 -1.657,-0.246 -2.434,-0.558 -1.167,-0.453 -2.401,-0.707 -3.652,-0.755 -1.251,0.048 -2.485,0.302 -3.652,0.755 -0.777,0.312 -1.598,0.501 -2.434,0.558 -0.836,-0.057 -1.657,-0.246 -2.434,-0.558 -1.167,-0.453 -2.401,-0.707 -3.652,-0.755 -1.251,0.048 -2.484,0.302 -3.651,0.755 -0.778,0.312 -1.599,0.501 -2.435,0.558 -0.836,-0.057 -1.657,-0.246 -2.434,-0.558 -1.167,-0.453 -2.401,-0.707 -3.652,-0.755 -1.25,0.048 -2.484,0.302 -3.651,0.755 -0.777,0.312 -1.599,0.501 -2.435,0.558 v 3.562 c 1.251,-0.047 2.485,-0.302 3.652,-0.754 0.775,-0.325 1.597,-0.525 2.434,-0.594 0.838,0.069 1.659,0.269 2.435,0.594 1.167,0.452 2.401,0.707 3.651,0.754 1.251,-0.047 2.485,-0.302 3.652,-0.754 0.775,-0.325 1.597,-0.525 2.434,-0.594 0.836,0.057 1.657,0.246 2.434,0.558 1.165,0.467 2.399,0.734 3.652,0.79 1.251,-0.047 2.485,-0.302 3.652,-0.754 0.775,-0.325 1.596,-0.525 2.434,-0.594 0.838,0.069 1.659,0.269 2.434,0.594 1.167,0.452 2.401,0.707 3.652,0.754 1.251,-0.047 2.485,-0.302 3.651,-0.754 0.776,-0.325 1.597,-0.525 2.435,-0.594 0.836,0.057 1.657,0.246 2.434,0.558 1.164,0.467 2.399,0.734 3.652,0.79 v -3.562 c -0.836,-0.057 -1.657,-0.246 -2.435,-0.558 z"
           stroke="#4472c4"
           stroke-width="0.59375"
           fill="#4472c4"
           id="path56192" />
        <path
           d="m 169.909,244.708 c -1.167,-0.453 -2.401,-0.707 -3.651,-0.755 -1.251,0.048 -2.485,0.302 -3.652,0.755 -0.777,0.312 -1.598,0.501 -2.434,0.558 v 0 c -0.836,-0.057 -1.657,-0.246 -2.434,-0.558 -1.167,-0.453 -2.401,-0.707 -3.652,-0.755 -1.251,0.048 -2.485,0.302 -3.652,0.755 -0.777,0.312 -1.598,0.501 -2.434,0.558 -0.836,-0.057 -1.657,-0.246 -2.434,-0.558 -1.167,-0.453 -2.401,-0.707 -3.652,-0.755 -1.251,0.048 -2.484,0.302 -3.651,0.755 -0.778,0.312 -1.599,0.501 -2.435,0.558 -0.836,-0.057 -1.657,-0.246 -2.434,-0.558 -1.167,-0.453 -2.401,-0.707 -3.652,-0.755 -1.25,0.048 -2.484,0.302 -3.651,0.755 -0.777,0.312 -1.599,0.501 -2.435,0.558 v 3.562 c 1.251,-0.047 2.485,-0.302 3.652,-0.754 0.775,-0.325 1.597,-0.525 2.434,-0.594 0.838,0.069 1.659,0.269 2.435,0.594 1.167,0.452 2.401,0.707 3.651,0.754 1.251,-0.047 2.485,-0.302 3.652,-0.754 0.775,-0.325 1.597,-0.525 2.434,-0.594 0.836,0.057 1.657,0.246 2.434,0.558 1.165,0.467 2.399,0.734 3.652,0.79 1.251,-0.047 2.485,-0.302 3.652,-0.754 0.775,-0.325 1.596,-0.525 2.434,-0.594 0.838,0.069 1.659,0.269 2.434,0.594 1.167,0.452 2.401,0.707 3.652,0.754 1.251,-0.047 2.485,-0.302 3.651,-0.754 0.776,-0.325 1.597,-0.525 2.435,-0.594 0.836,0.057 1.657,0.246 2.434,0.558 1.164,0.467 2.399,0.734 3.652,0.79 v -3.562 c -0.836,-0.057 -1.657,-0.246 -2.435,-0.558 z"
           stroke="#4472c4"
           stroke-width="0.59375"
           fill="#4472c4"
           id="path56194" />
        <path
           d="m 172.344,217.805 v -2.375 c -5.884,0 -11.246,-4.287 -11.281,-9.007 v -0.048 h -2.375 v 0.048 c -0.036,4.56 -5.938,8.983 -10.688,8.983 -4.75,0 -10.652,-4.423 -10.687,-8.983 v -0.048 h -2.375 v 0.048 c -0.036,4.75 -5.398,9.007 -11.282,9.007 v 2.375 c 0.596,-0.002 1.191,-0.04 1.782,-0.113 v 4.714 h -1.782 v 4.75 h 10.688 v 7.054 c 0.532,0.155 1.08,0.254 1.633,0.297 0.656,-0.048 1.305,-0.177 1.929,-0.386 v -6.965 h 20.188 v 7.125 c 0.532,0.158 1.079,0.258 1.633,0.297 0.656,-0.047 1.305,-0.177 1.929,-0.386 v -7.036 h 10.688 v -4.75 h -1.781 v -4.714 c 0.591,0.073 1.185,0.111 1.781,0.113 z m -42.156,4.601 h -2.375 v -5.195 c 0.815,-0.234 1.609,-0.536 2.375,-0.903 z m 4.156,0 h -1.781 v -7.528 c 0.638,-0.474 1.234,-1.003 1.781,-1.58 z m 5.344,0 h -1.782 v -9.108 c 0.548,0.575 1.144,1.101 1.782,1.574 z m 14.25,-6.103 v 6.103 h -2.375 v -5.201 c 0.815,-0.234 1.609,-0.536 2.375,-0.902 z m -4.75,1.383 v 4.75 h -2.375 v -4.75 c 0.391,0.047 0.789,0.083 1.187,0.101 0.398,0.018 0.796,-0.054 1.188,-0.101 z m -7.125,-1.383 c 0.765,0.364 1.559,0.664 2.375,0.896 v 5.207 h -2.375 z m 14.25,6.103 v -7.534 c 0.638,-0.473 1.233,-0.999 1.781,-1.574 v 9.108 z m 5.343,-9.108 c 0.547,0.577 1.143,1.106 1.782,1.58 v 7.528 h -1.782 z m 6.532,9.108 h -2.375 v -6.098 c 0.765,0.367 1.559,0.669 2.375,0.903 z"
           stroke="#4472c4"
           stroke-width="0.59375"
           fill="#4472c4"
           id="path56196" />
      </g>
    </g>
  </g>
  <rect
     x="119.5"
     y="55.704971"
     width="57"
     height="57"
     stroke="#ffffff"
     stroke-width="1.33333"
     stroke-miterlimit="8"
     stroke-opacity="0"
     fill="none"
     id="rect56204" />
  <text
     font-family="Calibri, Calibri_MSFontService, sans-serif"
     font-weight="400"
     font-size="29px"
     id="text56206"
     x="218.183"
     y="93.204971">Takes a lot of time to develop a new behavior rig</text>
  <path
     d="m 88,171.50497 c 0,-5.688 4.6115,-10.3 10.3001,-10.3 H 1015.7 c 5.69,0 10.3,4.612 10.3,10.3 v 82.4 c 0,5.688 -4.61,10.3 -10.3,10.3 H 98.3001 c -5.6886,0 -10.3001,-4.612 -10.3001,-10.3 z"
     fill="#ffffff"
     fill-rule="evenodd"
     id="path56208" />
  <g
     id="g56220"
     transform="translate(0,-138.79503)">
    <g
       id="g56218">
      <g
         id="g56216">
        <path
           d="m 166.109,333.891 -0.593,-5.344 -6.532,6.531 0.357,3.088 -9.5,9.5 c -0.832,-0.416 -1.782,-0.713 -2.791,-0.713 -3.266,0 -5.937,2.672 -5.937,5.938 0,3.265 2.671,5.937 5.937,5.937 3.266,0 5.938,-2.672 5.938,-5.937 0,-1.01 -0.238,-1.9 -0.654,-2.732 l 9.5,-9.5 3.088,0.357 6.531,-6.532 z"
           stroke="#4472c4"
           stroke-width="0.59375"
           fill="#4472c4"
           id="path56210" />
        <path
           d="m 166.584,342.678 -0.771,0.831 -1.129,-0.118 -1.246,-0.178 c 1.662,2.85 2.671,6.115 2.671,9.678 0,10.45 -8.55,19 -19,19 -10.45,0 -19,-8.55 -19,-19 0,-10.45 8.55,-19 19,-19 3.504,0 6.829,0.95 9.679,2.672 l -0.119,-1.188 -0.178,-1.187 0.831,-0.832 0.416,-0.415 c -3.207,-1.663 -6.769,-2.613 -10.629,-2.613 -12.468,0 -22.562,10.094 -22.562,22.563 0,12.468 10.094,22.562 22.562,22.562 12.469,0 22.563,-10.094 22.563,-22.562 0,-3.86 -0.95,-7.422 -2.672,-10.569 z"
           stroke="#4472c4"
           stroke-width="0.59375"
           fill="#4472c4"
           id="path56212" />
        <path
           d="m 157.025,348.853 c 0.534,1.247 0.772,2.613 0.772,4.038 0,5.878 -4.809,10.687 -10.688,10.687 -5.878,0 -10.687,-4.809 -10.687,-10.687 0,-5.878 4.809,-10.688 10.687,-10.688 1.425,0 2.791,0.297 4.038,0.772 l 2.672,-2.672 c -2.019,-1.069 -4.275,-1.662 -6.71,-1.662 -7.837,0 -14.25,6.412 -14.25,14.25 0,7.837 6.413,14.25 14.25,14.25 7.838,0 14.25,-6.413 14.25,-14.25 0,-2.435 -0.593,-4.691 -1.662,-6.71 z"
           stroke="#4472c4"
           stroke-width="0.59375"
           fill="#4472c4"
           id="path56214" />
      </g>
    </g>
  </g>
  <rect
     x="119.5"
     y="184.70497"
     width="57"
     height="57"
     stroke="#ffffff"
     stroke-width="1.33333"
     stroke-miterlimit="8"
     stroke-opacity="0"
     fill="none"
     id="rect56222" />
  <text
     font-family="Calibri, Calibri_MSFontService, sans-serif"
     font-weight="400"
     font-size="29px"
     id="text56224"
     x="218.183"
     y="222.20497">Often specific to a situation and scientific question</text>
  <path
     d="m 88,300.50497 c 0,-5.688 4.6115,-10.3 10.3001,-10.3 H 1015.7 c 5.69,0 10.3,4.612 10.3,10.3 v 82.4 c 0,5.688 -4.61,10.3 -10.3,10.3 H 98.3001 c -5.6886,0 -10.3001,-4.612 -10.3001,-10.3 z"
     fill="#ffffff"
     fill-rule="evenodd"
     id="path56226" />
  <g
     id="g56234"
     transform="translate(0,-138.79503)">
    <g
       id="g56232">
      <g
         id="g56230">
        <path
           d="m 171.869,454.875 -5.641,4.513 -1.662,3.146 0.059,0.06 -20.187,20.187 -2.435,-2.493 -1.722,1.721 c 0.653,0.654 0.653,1.663 0,2.257 -0.653,0.653 -1.662,0.653 -2.256,0 l -15.319,15.259 0.06,0.059 c -1.366,1.9 -1.128,4.513 0.534,6.175 1.663,1.663 4.275,1.9 6.175,0.535 l 0.059,0.059 0.594,-0.594 14.666,-14.665 c -0.653,-0.653 -0.653,-1.663 0,-2.256 0.653,-0.654 1.662,-0.654 2.256,0 l 1.663,-1.663 -2.494,-2.553 20.187,-20.188 0.06,0.06 3.147,-1.663 4.512,-5.7 z"
           stroke="#4472c4"
           stroke-width="0.59375"
           fill="#4472c4"
           id="path56228" />
      </g>
    </g>
  </g>
  <rect
     x="119.5"
     y="313.70496"
     width="57"
     height="57"
     stroke="#ffffff"
     stroke-width="1.33333"
     stroke-miterlimit="8"
     stroke-opacity="0"
     fill="none"
     id="rect56236" />
  <rect
     x="207"
     y="290.20496"
     width="819"
     height="103"
     fill="#ffffff"
     id="rect56238" />
  <text
     font-family="Calibri, Calibri_MSFontService, sans-serif"
     font-weight="400"
     font-size="29px"
     id="text56240"
     x="218.183"
     y="351.20496">Hard to maintain and extend</text>
  <path
     d="m 88,429.50497 c 0,-5.688 4.6115,-10.3 10.3001,-10.3 H 1015.7 c 5.69,0 10.3,4.612 10.3,10.3 v 82.4 c 0,5.688 -4.61,10.3 -10.3,10.3 H 98.3001 c -5.6886,0 -10.3001,-4.612 -10.3001,-10.3 z"
     fill="#ffffff"
     fill-rule="evenodd"
     id="path56242" />
  <g
     id="g56252"
     transform="translate(0,-138.79503)">
    <g
       id="g56250">
      <g
         id="g56248">
        <path
           d="m 173.294,601.094 -16.981,-14.25 v 8.312 c -26.007,0.238 -26.363,26.719 -26.363,26.719 0,0 5.522,-14.072 26.363,-14.25 v 7.719 z"
           stroke="#4472c4"
           stroke-width="0.59375"
           fill="#4472c4"
           id="path56244" />
        <path
           d="m 163.081,614.453 v 15.141 h -36.812 v -36.813 h 26.481 v -3.562 h -30.044 v 43.937 l 43.938,-0.178 v -21.553 z"
           stroke="#4472c4"
           stroke-width="0.59375"
           fill="#4472c4"
           id="path56246" />
      </g>
    </g>
  </g>
  <rect
     x="119.5"
     y="442.70496"
     width="57"
     height="57"
     stroke="#ffffff"
     stroke-width="1.33333"
     stroke-miterlimit="8"
     stroke-opacity="0"
     fill="none"
     id="rect56254" />
  <text
     font-family="Calibri, Calibri_MSFontService, sans-serif"
     font-weight="400"
     font-size="29px"
     id="text56256"
     x="218.183"
     y="480.20496">Hard to share and reproduce</text>
</svg>
